<?xml version="1.0" encoding="utf-8"?>
<!-- Generator: Adobe Illustrator 19.0.0, SVG Export Plug-In . SVG Version: 6.00 Build 0)  -->
<svg version="1.1" id="Layer_1" xmlns="http://www.w3.org/2000/svg" xmlns:xlink="http://www.w3.org/1999/xlink" x="0px" y="0px"
	 viewBox="0 0 512 512" style="enable-background:new 0 0 512 512;" xml:space="preserve">
<style type="text/css">
	.st0{fill:#CCD6DD;}
	.st1{fill:#667580;}
	.st2{fill:#05D80A;}
	.st3{fill:#D60C07;}
</style>
<g id="tudZkH.tif">
	<path id="XMLID_16_" class="st0" d="M417.2,188.6c-4.5-5.3-9.3-10.6-14.8-15c-6.8-5.3-15.2-8.8-23.3-11.7
		c-7.1-2.6-14.5-4.4-21.6-6.9c-7.3-2.5-14.5-5.4-21.8-7.7c-15.5-4.7-31.8-6.1-47.9-6.5c-33-0.8-67.3-1.9-99.8,4.4
		c-13.2,2.6-26.4,5.8-39.4,9c-13.1,3.2-26.2,6.9-38.5,12.3c-11.8,5.2-23.1,11.9-31.9,21.4c-4.9,5.3-9.1,11.3-14.7,15.9
		c-4.5,3.8-9.8,7.1-10.9,13.3c-0.4,2.1-1.7,3.2-3.3,3.5c-1.5,11.3-2.3,22.9-2.3,34.7c0,126.6,89.7,229.2,200.3,229.2
		s200.3-102.6,200.3-229.2c0-13.5-1-26.8-3-39.7C433.5,208.9,425.5,198.4,417.2,188.6z"/>
	<path id="XMLID_9_" class="st1" d="M417.2,188.6c-4.5-5.3-9.3-10.6-14.8-15c-6.8-5.3-15.2-8.8-23.3-11.7
		c-7.1-2.6-14.5-4.4-21.6-6.9c-7.3-2.5-14.5-5.4-21.8-7.7c-15.5-4.7-31.8-6.1-47.9-6.5c-33-0.8-67.3-1.9-99.8,4.4
		c-13.2,2.6-26.4,5.8-39.4,9c-13.1,3.2-26.2,6.9-38.5,12.3c-11.8,5.2-23.1,11.9-31.9,21.4c-4.9,5.3-9.1,11.3-14.7,15.9
		c-2.3,1.9-4.8,3.8-6.9,5.9c-6.2,10.9-9.6,22.4-9.6,34.4c0,62.1,89.7,112.4,200.3,112.4s200.3-50.3,200.3-112.4
		c0-11.3-3-22.2-8.5-32.4C430.7,205.3,424.1,196.7,417.2,188.6z"/>
	<g id="XMLID_1_">
		<g id="XMLID_14_">
			<path id="XMLID_19_" class="st2" d="M126.2,221c10.3,19.9,33.9,22.6,53.9,23.5c-1.9-2.5-3.9-5.1-5.8-7.6
				c-1.2,3.5-2.8,6.8-4.9,9.9c-0.6,0.9-2.4,3.8-3.5,4c-0.7,0.1-3.2-2.2-3.8-2.5c-3-2-6.3-3.7-9.9-4.4c-3.9-0.7-7.3,0.3-11.1,0.9
				c-14.5,2.1-23.7-14.1-31.3-23.7c-4.2-5.4-9-10.5-15-13.9c-6.4-3.7-14-4.5-20.5-8c-12.5-6.7-20.3-19.2-26.1-31.7
				c-1.8-3.9-8.6-4-10.4,0c-3.6,8.1-6.1,16.3-7.2,25.1c-1,8-1.5,17.1,3.5,23.9c8.3,11.3,24.7,10.9,35.1,19.6c6,5,9.8,11.3,12.7,18.5
				c2.7,6.7,6.3,13,13.5,15.6c16.2,5.8,29.6-8.6,32-23.5c0.6-3.4-0.9-6.1-4.2-7.4c-16.7-6.3-34.3-11.7-50.2-20
				c-3.5-1.8-6.8-3.7-8.8-7.2c-1.8-3-2.8-6.3-4.3-9.4c-1.5-3.2-3.6-5.9-6.1-8.5c-2.3-2.3-6.6-5.1-5.4-8.8c-3.9-0.5-7.9-1.1-11.8-1.6
				c0,9.1,0.2,18.7,2.1,27.6c0.8,3.8,2.8,7,6.7,8.2c3.6,1.1,7.5-0.3,11.2,0.6c7.7,1.9,15.2,7.7,21.3,12.7c6.2,5,11.6,10.8,13.6,18.7
				c3.9-1.1,7.7-2.1,11.6-3.2c-5.6-19-11.8-37.8-18.6-56.4c-3.4-9.4-7.5-17.8-5.8-28c0.7-4.2,1.7-8.4,2.8-12.5c0.6-2.4,1.3-4.7,2-7
				c0.5-1.4,2.7-5.6,2.4-6.9c0.9-1.2,0.4-1.5-1.6-0.9c0.3,0.7,0.4,1.5,0.3,2.2c0.1,2.3-0.4,4.7-0.7,6.9c-0.5,4.5-1,8.9-1.5,13.4
				c-1.2,10.2-2.4,20.3-3.5,30.5c-1.7,17-0.7,35.7,12.5,48.2c0-2.8,0-5.7,0-8.5c-6.8,8.8-10.8,18.3-12.2,29.4
				c2.5-1.9,5.1-3.9,7.6-5.8c-7-1-6.5-12.8-7.4-18.1c-1.5-8.3-3.3-16.4-3.9-24.9c-1.1-16.4,1.3-32.8,7-48.3
				c5.8-15.9,16.8-28.5,24.2-43.5c6.1-12.5,10.8-30.7,26.6-34c-2.5-1.9-5.1-3.9-7.6-5.8c0.4,2.9-2.4,5.7-3.8,8.1
				c-1.6,2.7-3.1,5.5-4.5,8.3c-2.8,5.6-5.1,11.5-7.1,17.4c-4.2,12.4-6.6,25.3-8.1,38.3c-1.7,14.3-2.2,28.7-2.5,43.1
				c-0.1,6.2-0.6,12.5,0.6,18.6c1.2,6.3,5.7,10.9,7.4,16.9c2.5-2.5,4.9-4.9,7.4-7.4c-3.4-0.7-4.6-4.9-5.9-7.7c-2.1-4.5-4-9-5.4-13.8
				c-2.9-10.4-1-19.9,1.7-30.1c5.2-19.6,11.9-38.8,20.1-57.4c-3.7-1.5-7.3-3.1-11-4.6c-11.1,38.8-29.3,76.1-30.5,117.1
				c3.9-0.5,7.9-1.1,11.8-1.6c-2.5-15.9-1-32.4-0.6-48.4c0.4-15.6-0.5-32,5.3-46.7c-3.9-0.5-7.9-1.1-11.8-1.6
				c1,10,1.1,20.9-1.7,30.7c-1.2,4.3-3.7,7-6.9,10c-4.2,4-8.3,8-12.5,12c3.3,1.9,6.7,3.9,10,5.8c3.3-12.5,9.1-24.1,17.4-34.1
				c-3.1-2.4-6.3-4.8-9.4-7.3c-6.2,9.3-12.4,18.7-17.3,28.8c-2.7,5.5-7.9,17.7-15.2,9.6c-1.9,3.3-3.9,6.7-5.8,10
				c29.1,6,34.6-33.2,39.8-52.8c2-7.5-9.6-10.7-11.6-3.2c-2.5,9.5-4.8,19.1-7.8,28.4c-2.4,7.3-7.9,18-17.3,16
				c-5.9-1.2-10,5.5-5.8,10c8.4,9.3,22.5,7.2,29.3-2.8c3.7-5.4,5.9-11.8,9.1-17.5c4-7.1,8.4-13.8,12.9-20.6c3.8-5.6-5-12.5-9.4-7.3
				c-9.6,11.6-16.6,24.8-20.5,39.4c-1.6,5.9,5.7,10,10,5.8c7.9-7.6,18.4-15,22-25.8c3.7-11,3.6-24,2.5-35.4c-0.7-6.9-9.3-8-11.8-1.6
				c-6.2,15.7-5.2,33.4-5.7,49.9c-0.5,17.2-1.7,34.5,1,51.6c1.1,6.9,11.6,4.9,11.8-1.6c1.2-39.8,19.3-76.2,30-113.9
				c1.8-6.3-8.2-11-11-4.6c-9.8,22.3-18.6,45.7-23.6,69.6c-2.5,11.7-1.5,22.8,2.9,34c3.3,8.4,7.2,20.9,17.4,23
				c4.4,0.9,8.7-2.7,7.4-7.4c-1.6-5.8-5.9-10.3-7.2-16.1c-1.4-6.1-0.5-13-0.3-19.2c0.4-14.1,0.9-28.2,2.7-42.1
				c1.6-12.4,4.3-24.7,8.6-36.4c2.2-6,4.9-11.8,8-17.4c2.9-5.1,7.5-10.1,6.8-16.4c-0.5-4-3.4-6.6-7.6-5.8
				c-13.5,2.7-22.1,14.2-27.7,26c-3.3,6.9-6,14-9.9,20.6c-4,6.8-8.7,13.1-12.6,20c-14.8,25.9-19.6,56.2-14.6,85.5
				c1.4,8.3,2.5,16.8,4.4,25c1.6,7,6.3,13.9,13.9,14.9c4.2,0.6,7.1-1.6,7.6-5.8c0.9-7.5,4-14.9,8.6-20.9c1.9-2.5,2.6-6,0-8.5
				c-12.4-11.7-10.1-30-8.4-45.3c1-8.9,2-17.9,3.1-26.8c0.8-7.4,3.4-16.5,1.3-23.8c-1.9-6.5-9.5-11-15.7-7.3
				c-6.1,3.6-7.8,13.3-9.5,19.5c-2.2,7.8-4.5,16.3-4.6,24.5c-0.1,8.5,3.7,16.3,6.6,24.1c6.9,18.9,13.2,38,18.9,57.3
				c2.2,7.4,13.5,4.3,11.6-3.2C99.3,233.1,86,222.8,73,214.7c-6.4-4-15.6-8.8-23.4-6.8c1.1,2,1.3,2.1,0.8,0.3
				c-0.1-0.6-0.2-1.2-0.3-1.8c-0.4-2.5-0.6-5.1-0.8-7.7c-0.4-5-0.6-9.9-0.6-14.9c0-6.9-9.7-8-11.8-1.6c-3.2,10,4.5,15.4,10,22.1
				c2.7,3.2,3.9,7.5,5.6,11.2c2,4.3,4.8,7.8,8.7,10.6c8,5.8,18.1,9.2,27.3,12.7c10.5,4,21.1,8,31.6,12c-1.4-2.5-2.8-4.9-4.2-7.4
				c-0.9,5.6-3,12.1-8.6,14.7c-5.9,2.8-10.6,0.1-13.1-5.4c-2.5-5.4-4.3-10.8-7.8-15.7c-3.4-4.7-7.4-8.8-12.1-12.3
				c-4.4-3.3-9.3-5.6-14.4-7.4c-4.8-1.7-10.5-2.9-14.4-6.3c-4.5-3.9-3.4-11.3-2.8-16.6c0.8-7.2,2.8-14.3,5.7-20.8
				c-3.5,0-6.9,0-10.4,0c6.6,14.3,16.2,28.4,30.4,36c7.6,4.1,16.7,4.8,23.6,10c6.5,5,11,12.2,15.9,18.6c5.1,6.5,11,12.5,18.6,16
				c3.7,1.7,7.6,2.7,11.6,2.8c4.1,0.1,8.4-2.1,12.4-1.2c4,0.9,6.9,4.4,10.5,6c3.9,1.8,7.9,1.3,11.4-1c6.8-4.4,11-13.3,13.4-20.7
				c1.3-3.9-2.1-7.4-5.8-7.6c-15.7-0.7-35.3-1.8-43.5-17.6C133,208.1,122.7,214.2,126.2,221L126.2,221z"/>
		</g>
	</g>
	<g id="XMLID_2_">
		<g id="XMLID_22_">
			<path id="XMLID_26_" class="st2" d="M145,270.8c14.7-7.8,30.2-14.8,44.1-23.9c14.6-9.6,26.5-23.2,38.4-35.9
				c5.5-5.9,11-12,16.1-18.2c3.2-4,6.4-8.1,9.5-12.2c1-1.3,2-2.7,3-4c1.3-1.7,1.3-1.8,0.2-0.3c0.7-0.9,1.4-1.7,2.1-2.6
				c2.1-2.5,4.3-5,6.8-7.2c0.8-0.7,1.6-1.5,2.5-2.2c-1.4,1.1-1.3,1.1,0.3,0c1.3-0.7,2.6-1.5,4-2.2c-3.6,1.7,1.3-0.2,2.2-0.5
				c0.7-0.2,1.5-0.3,2.2-0.5c-2.3,0.3-2.4,0.4-0.3,0.3c5-0.1-3.9-0.2,1.1,0c1.9,0.6,1.9,0.5-0.2-0.3c0.9,0.4,1.7,0.9,2.6,1.5
				c4.6-11,9.2-21.9,13.9-32.9c-19.3-4.8-39.3-0.2-56.1,9.9c-15.4,9.2-28.2,22.2-41.3,34.3c-13.7,12.7-27.3,25.5-41,38.2
				c-6.6,6.1-13,12.4-19.7,18.3c-0.8,0.7-1.7,1.4-2.5,2.1c1.5-1.1,1.4-1.1-0.3,0.1c-1,0.6-4.4,2.2-1.4,1.1c-1,0.4-1.9,0.6-2.9,0.9
				c2.3-0.2,2.4-0.2,0.3-0.1c-2.1-0.1-2-0.1,0.4,0.1c1.1,0.4,2,1,2.8,1.8c1.8,4.2,3.5,8.5,5.3,12.7c0.2,1.9-5.9,11.6-1,5.6
				c0.8-1,1.7-2.1,2.5-3.1c2.1-2.6,4.2-5.1,6.4-7.7c4-4.9,8.1-9.8,12.1-14.6c4.7-5.7,6.8-12.5,3.7-19.7c-2.9-6.8-9.1-10.6-16.4-11.1
				c-2.9-0.2-5.8-0.5-8.6-0.7c-2.2-0.1,2.8,0.6-0.7-0.1c-1.5-0.3-3.1-0.6-4.6-0.9c-1.3-0.3-2.5-0.7-3.7-1.1
				c-1.6-0.5-2.8-1.4-0.7-0.2c-1.4-0.8-2.7-1.5-4-2.3c2.1,1.3,0.5,0.4-0.4-0.8c1.5,2.6,3.1,5.3,4.6,7.9c0.9,4.3,0.1,7.9-2.5,10.8
				c1.2-1.6,2.5-3.2,3.7-4.8c0.8-1.2,1.4-2.4,2.1-3.7c2.5-5.2,3.8-10.1,4.2-15.9c0.6-8.6-1.7-18-6.8-25c-6.8-9.4-19.2-12.2-28.3-3.6
				c-5.3,5.1-10.6,10.2-16,15.2c9.4,1.2,18.8,2.4,28.3,3.6c0.8,1.7,0.8,1.6,0.2-0.4c0.1,0.5,0.2,1,0.3,1.5c0.1-2.1,0.1-2.2-0.2-0.3
				c0.1-0.6,0.2-1.1,0.3-1.7c0.5-1.7,0.9-3.3,1.5-5c-1.1,3.2,0.6-1.3,0.9-2c3.4-7.2,7.4-14.5,8.8-22.5c1.4-8.1,0.8-16.2,0.5-24.4
				c0.1-1.3,0.1-1.2-0.1,0.4c0.6-2,0.7-2.3,0.1-0.9c-0.9,2.8,2.4-3,0.5-0.9c-0.8,1.1-0.7,1,0.5-0.3c-1.7,1.1-2,1.4-0.9,0.6
				c4.2-2.1-2,0.3,1.5-0.7c-7.4-7.4-14.8-14.8-22.1-22.1C96,117,91.9,135.6,89.4,154.7c-1.2,9-2,18.1-2.3,27.2
				c-0.3,9.1-1.3,20.3,1.7,29c4.2,12.2,14.7,18.2,27,19.2c3.1,0.2,6.1-0.1,9.2-0.3c0.6,0,4.3-0.4,4.4-0.1c-0.5-1.7-3.9,1.2-1.1-0.1
				c0.4,0.1,0.8,0.2,1.2,0.3c-0.7-0.3-1.4-0.6-2.1-0.9c2.7,1.4-0.2,1.8-3.2-3.6c-1-1.8-0.9-3-0.9-5.2c0-2.1-0.1-3.4,1-5.1
				c1.9-3.1,1.2-1.7,0.4-0.7c0.4-0.5,3.3-2,0.4-0.4c-0.6,0.4-1.2,0.7-1.8,1c-0.6,0.3-1.3,0.6-1.9,0.9c3.8-2.1,0.2-0.2-0.8,0.2
				c-4.1,1.5-8.3,3-12.6,4c-0.9,0.2-6.4,0.8-3.4,0.7c-1.2,0.1-2.4,0.1-3.7,0.1c-1.1,0-2.6-0.4-0.7,0c-0.9-0.2-1.8-0.6-2.7-0.7
				c1.1,0.2,2.6,1,0.5,0.1c-1.1-0.4-2.1-2,0.3,0.4c-1.5-1.6-0.4-0.5,0.3,0.5c0.2,0.6,0.5,1.2,0.7,1.8c-0.1-0.5-0.3-1-0.4-1.6
				c0.8,0.9,0.2,2.4,0.3-0.1c0.1-3.3-0.3-6.5-0.8-9.7c-2.2-14.1-17.1-25.6-31.4-20.8c-13.3,4.5-17,19.6-7.9,30.1
				c4.4,5,8.6,10.1,12.8,15.4c0.2,0.3,3,3.8,2,2.5c-1-1.3,1.7,2.2,1.9,2.5c2,2.7,4,5.3,5.9,8.1c7.6,10.6,14.7,21.5,21.3,32.7
				c8.2-8.2,16.4-16.4,24.6-24.6c-1.9-1-3.8-2-5.6-3.1c-0.6-0.4-5.7-4.3-2.9-1.9c-1.6-1.4-3.2-2.8-4.7-4.4c-0.5-0.5-4.6-5.5-2.4-2.5
				c-5.6-7.5-15.8-12.1-24.6-6.5c-7.6,4.9-12.3,16.4-6.5,24.6c18.1,25.2,42.1,44,71,55.4c29.2,11.6,62.3,12.2,93.2,10.9
				c29.6-1.3,59.6-5.5,87.6-15.2c14.1-4.9,28-10.9,41-18.5c13.1-7.7,27-16.9,36.5-28.9c6-7.5,8.9-15.5,13.2-23.9
				c0.9-1.8,2-3.5,3.1-5.2c0,0,1.8-2.3,0.7-1c-1.1,1.4,1.8-1.9,2-2.2c2.9-3.2,5.9-6.3,8.9-9.3c13.5-14,27-27.9,40.4-41.9
				c4.4-4.6,6.5-11.3,4.6-17.5c-3.9-13-16.8-19.4-29.7-16.6c-5.4,1.1-10.3,4.8-14.2,8.5c-1.3,1.3-2.5,2.7-3.9,3.9
				c-0.7,0.7-4.4,3.8-1.9,1.9c-7,5.4-14.7,9.7-21.6,15.2c-6.8,5.4-11.9,12.4-17.1,19.3c-1.1,1.5-2.3,3.1-3.4,4.7
				c-2,2.7,0.9-1-1.2,1.6c-2.8,3.3-5.7,6.4-8.9,9.3c-1.5,1.4-3.1,2.7-4.7,4c0,0-2.3,1.8-0.9,0.8c1.3-1.1-0.9,0.7-1,0.7
				c-3.5,2.6-7.1,5.2-10.7,7.8c-6.8,4.9-13.6,9.7-20.7,13.9c-3.6,2.1-7.2,4.2-11,6c-0.8,0.4-1.7,0.8-2.5,1.2
				c-0.3,0.1-3.1,1.4-0.9,0.4c-2.3,1-4.6,1.9-7,2.8c-16,6-31.9,12.3-47.9,18.1c-7.8,2.8-15.7,5.4-23.9,7.1c-0.9,0.2-1.7,0.3-2.6,0.5
				c-0.5,0.1-4.1,0.6-1.9,0.3c1.9-0.3-0.9,0.1-1.1,0.1c-1.2,0.1-2.3,0.2-3.5,0.3c-4.1,0.2-8.2,0.1-12.3-0.3c3.2,0.3-2.2-0.4-3.1-0.6
				c-2-0.4-4-0.9-6-1.5c-4-1.1-7.9-2.6-11.8-4c-0.4-0.1-3.2-1.3-0.7-0.2c-0.8-0.4-1.6-0.7-2.5-1.1c-1.9-0.9-3.8-1.7-5.7-2.6
				c-3.7-1.8-7.4-3.6-11.1-5.4c-3.4-1.7-6.8-3.4-10-5.4c-0.7-0.4-1.4-0.9-2-1.3c-0.4-0.3-3.1-2.2-1.4-0.9c1.5,1.2-0.5-0.5-0.7-0.6
				c-1-0.9-1.8-2-2.8-2.8c-1.4-1.1-0.1,0,0.2,0.4c-0.5-0.7-1-1.5-1.5-2.2c-1.1-1.7-2.1-3.6-3-5.4c-2.1-4.2-4.2-8.4-6.2-12.6
				c-4.3-8.8-8.7-17.6-13-26.4c-1.6-3.2-0.8-1.5-0.4-0.8c-0.5-1.1-0.9-2.3-1.3-3.4c-0.4-1.2-0.7-2.3-1-3.5c-0.3-1.2-0.7-2.4-0.1-0.5
				c-0.1-0.3-0.1-3.9-0.3-0.5c0.1-1.1,0.5-2.3,0.8-3.4c0.6-2.2,1.5-4.4,2.3-6.6c3.4-9.4,5.3-19.4,1.5-29.1
				c-4.5-11.3-14-20.2-26.9-19.8c1.6,11.8,3.2,23.6,4.8,35.4c3-1.2,6.1-2.1,9.3-2.8c1.2-0.2,3.9-0.4,1.3-0.3
				c1.8-0.1,3.5-0.2,5.3-0.2c1.5,0,2.9,0.2,4.4,0.2c1.9,0-1.8-0.5,1.3,0.2c1.3,0.3,3.9,1.3,5.1,1.3c-5.6,0.2-4-19.4-6.8-13
				c-0.3,0.8-1.8,3.9-0.1,0.7c-0.6,1.2-1.2,2.3-1.8,3.5c-1.3,2.5-2.8,5-4,7.6c-3.3,6.9-5.9,14.1-5.4,22
				c0.9,14.4,14.4,21.3,27.1,15.5c10.1-4.6,16.3-15.3,18.9-25.7c1.2-4.9,1.7-10,2.2-15c0.2-2.2,0.2-0.9-0.1,0.5
				c0.2-1.2,0.4-2.4,0.6-3.5c0.2-0.9,0.4-1.8,0.7-2.8c0.4-1.3,1.8-3.2-0.1-0.2c0.5-0.7,0.9-1.6,1.3-2.3c-0.4,0.5-0.8,1-1.2,1.5
				c0.3-0.3,0.6-0.6,1-1c-0.4,0.3-0.9,0.7-1.3,1c1.6-0.8,1.8-1,0.6-0.5c-1.9,0.9,1.1-0.3,1.5-0.4c4.8-1.3,9.8-1.9,14.8-2.7
				c0.6-0.1,1.3-0.2,1.9-0.3c-1.3,0.2-1.3,0.2-0.1,0c1.3-0.2,2.5-0.3,3.8-0.5c2.8-0.3,5.7-0.6,8.5-0.9c5.7-0.5,11.4-0.8,17.1-1.1
				c-4.2-10.2-8.5-20.5-12.7-30.7c-11.3,10.7-22.5,21.5-33.8,32.2c-5.6,5.4-11.3,10.7-16.9,16.1c-7.4,7.1-11.6,13.8-12.8,24.1
				c-0.9,7.4,6.2,15.8,13.2,17.4c7.1,1.6,17.2-0.8,20.3-8.3c4.3-10.1,9.6-19.8,16-28.7c1-1.3,1.9-2.7,2.9-4
				c-1.1,1.5-0.6,0.8,0.2-0.2c1.8-2.1,3.5-4.2,5.4-6.2c3.9-4.3,8-8.3,12.4-12.1c1-0.9,2.1-1.8,3.1-2.7c2.4-2-0.6,0.2,1-0.8
				c1.2-0.7,2.4-1.5,3.5-2.3c0.5-0.3,1-0.5,1.5-0.8c-1.5,0.6-1.6,0.7-0.4,0.2c0.6-0.1,4.4-1,1.2-0.5c1.4-0.2,2.9-0.2,4.4-0.2
				c3.1,0,6.2,0.1,9.3,0.2c13.5,0.3,26.9,0.6,40.4,0.9c-5.2-9-10.4-18.1-15.5-27.1c-1.6,3.1-3.5,6-5.4,8.9c-1.2,1.6-1,1.4,0.5-0.5
				c-0.5,0.7-1.1,1.3-1.6,2c-1.1,1.3-2.3,2.6-3.5,3.9c-4.8,5.1-10.2,9.7-15.7,14.1c3.8-3-1,0.7-1.7,1.2c-1.4,1.1-2.9,2.1-4.3,3.2
				c-2.9,2.1-5.8,4.2-8.8,6.3c-6.7,4.8-13.3,9.7-19.8,14.9c-11.6,9.3-22.5,20.6-29.2,34c-3.5,6.9-4.8,13.7-2.4,21.2
				c1.8,5.8,6.1,10.9,10.4,15.1c7.4,7.4,16.4,12.5,26.2,15.9c0-11.6,0-23.1,0-34.7c-19.4,4.1-38.9,8.3-58.3,12.4
				c-14.9,3.2-17.8,25.9-4.3,32.9c17.9,9.3,36.3,18.8,56,23.7c20.8,5.2,42.3,4.7,63.1-0.7c38.3-10.1,71.9-35.1,102.1-59.7
				c15.5-12.6,30-27.5,38.2-45.8c4.1-9.2,2.4-18.9-6.5-24.6c-18.1-11.8-40.6-11.8-61.4-13c-10.6-0.6-21.3-1.6-32-2
				c-2.8-0.1,2.9,0.6,0.2,0.1c-1-0.2-2-0.4-3-0.6c-1-0.2-2-0.5-3-0.8c-0.5-0.2-3.5-1.3-1.4-0.4c2.1,0.9-0.7-0.5-1.2-0.8
				c-0.8-0.5-2.5-2.4-1.1-0.7c0.3,0.2,0.5,0.4,0.8,0.5c-1.3-1.4-1.2-1.2,0.5,0.8c-0.4,0-2-4.1-0.8-1.1c1,2.5-0.1-0.1-0.1-0.8
				c-0.1-2.5,0.3,3.6,0.1,1.2c-0.1-0.7-0.2-3.4-0.2-0.6c0,2.7,1.1-1-0.3,1.2c-1.9,2.9,2-1.1-0.6,1.1c-1.5,1.2-2.4,2.1-4.2,2.9
				c1-0.4,3.3-0.4-0.6,0c-0.6-0.1-1.3-0.2-1.9-0.3c0.7,0.1,1.4,0.3,2.1,0.6c2.3,0.4-2-1.5-0.1,0c0.8,0.6,1.8,1.1,2.6,1.6
				c2.2,1.3-1.6-1.9-0.1,0c0.6,0.8,1.4,1.4,2.1,2.1c3.1,3.2,5.9,6.7,9.2,9.8c9.4,8.7,20.4,12.6,33.2,12.7c2.6,0,5.3-0.1,7.9-0.2
				c1.7,0,5.4-0.7,7,0.1c-0.2-0.1-4.3-1-0.8,0.1c1,0.3,2.7,1.3-0.4-0.4c0.8,0.4,1.6,0.9,2.4,1.3c2.9,1.6-1.5-1.3,0,0.1
				c1.9,1.7-2.1-3.6-0.2-0.1c-0.8-1.4-1.3-2.7-1.3-4.4c0-1.5,0.6-2.6,1.1-3.9c0.8-2.3,1.9-0.1,0.1-0.3c0,0,3.7-2.3,0.1-0.1
				c-0.9,0.5-1.7,1-2.6,1.5c-2.4,1.3-4.8,2.5-7.3,3.7c-4,2-8.1,3.9-12.2,5.7c-2.1,0.9-4.1,1.8-6.2,2.7c-0.5,0.2-3.2,1.3-0.4,0.2
				c-1.6,0.7-3.1,1.3-4.7,1.9c-18.5,7.6-37.3,14.8-55,24.2c-18.7,9.9-34.1,23.3-50,37c-1.8,1.6-3.6,3.4-5.7,4.7
				c2.9-1.9,0.3-0.4-0.2-0.1c-3.8,1.9-0.1,0,0.1,0c0.6-0.1,1.3-0.2,1.9-0.3c2.5,1,5,2,7.5,3c-1.4-0.4-1.4-1.4-0.1,0.2
				c-1.8-2.2-3.4-4.6-5-7c-1.3-1.9-2.4-3.9-3.5-5.9c-1.7-2.9-0.6-1.1-0.3-0.3c-0.4-1-0.7-2.1-1.1-3.2c-1-2.9-0.4-1.2-0.3-0.1
				c-0.1-1,0-2.1-0.1-3.1c-0.5-4.1-0.8,2.1-0.1-0.1c0.3-1.1,0.6-2.2,0.9-3.3c0.9-3.1,0.1-0.1-0.2,0.5c0.7-1.2,1.4-2.5,2.1-3.6
				c0.4-0.7,2.1-2.5-0.3,0.2c0.8-0.9,1.6-1.8,2.4-2.7c1.7-1.8,3.6-3.4,5.4-5.1c1.9-1.8-2.3,1.5-0.1,0c1-0.7,2-1.5,3.1-2.2
				c4.4-3,9.1-5.5,13.8-7.9c2.3-1.2,4.6-2.3,7-3.3c0.4-0.2,3.7-1.6,1.8-0.8c-1.9,0.8,2.3-0.9,2.6-1c5.3-2,10.8-3.7,16.4-5.1
				c2.5-0.6,5-1.1,7.5-1.5c0.9-0.1,4.6-0.5,1.1-0.2c1.4-0.1,2.8-0.3,4.2-0.4c5.3-0.4,10.6-0.2,15.8,0.3c-0.8-0.1-3.4-0.6,0.2,0.1
				c1.6,0.3,3.3,0.6,4.9,1c2.7,0.7,5.4,1.5,8.1,2.4c-1.4-11-2.9-21.9-4.3-32.9c-4.2,2.3-8.4,4.6-12.7,6.6c0,0-5.2,2.3-2.3,1
				c-2.2,0.9-4.4,1.8-6.7,2.6c-8.1,2.9-16.5,5.2-25,6.9c-9.4,1.8-18.8,2.1-27.5,6.6c-10.7,5.6-16.8,15.6-17.8,27.5
				c-0.9,9.9,9,17.8,18,18c18.6,0.5,37.3,0.3,55.9-0.5c-5.2-9-10.4-18.1-15.5-27.1c1.7-2.3-1.3,1.7-1.7,2.1
				c-1.1,1.4-2.3,2.8-3.5,4.2c-2.3,2.8-4.8,5.6-7.2,8.3c-4.9,5.4-10.1,10.6-15.4,15.6c-13,12.2,0.5,35.4,17.5,30.1
				c24.8-7.8,47.4-20.9,66.3-38.7c-10-5.8-20.1-11.7-30.1-17.5c-0.8,4.9-1.6,9.9-2.3,14.8c-1.5,9.3,2.4,19.8,12.6,22.1
				c8.6,2,20.6-2.6,22.1-12.6c0.8-4.9,1.6-9.9,2.3-14.8c1.2-7.7-0.7-16.3-8.3-20.3c-7.3-3.8-15.8-2.9-21.8,2.8
				c-2,1.9-4.1,3.8-6.2,5.6c-1.1,0.9-2.2,1.7-3.2,2.6c-2.3,1.9,3.3-2.3-1,0.7c-4.3,3.1-8.6,6-13.2,8.7c-4.6,2.7-9.3,5-14.1,7.2
				c-3,1.4,0.8-0.2-1.1,0.5c-1.3,0.5-2.6,1-3.9,1.5c-2.6,1-5.2,1.8-7.9,2.7c5.8,10,11.7,20.1,17.5,30.1
				c12.3-11.5,23.2-24.1,33.5-37.5c8.3-10.9-3-27.7-15.5-27.1c-18.6,0.8-37.2,1-55.9,0.5c6,6,12,12,18,18c0.1,1.3-0.3,2.6-0.9,3.8
				c-1.3,1.5-1.6,1.8-0.7,0.8c0.9-0.9,0.6-0.7-0.9,0.5c0.6-0.4,1.2-0.8,1.9-1.1c1-0.5,0.8-0.4-0.4,0.2c1.1-0.3,2.2-0.6,3.4-0.9
				c1.7-0.4,3.4-0.6,5.2-0.9c7.4-1.1,14.7-2.3,21.9-4.2c15.6-4.1,30.8-10.4,44.8-18.3c6.3-3.5,9.5-11,8.6-17.9
				c-1-7.4-6-12.5-12.9-15c-23.8-8.4-50.5-6.1-74,2.2c-22.6,7.9-46.9,20-60.5,40.6c-7.5,11.3-9.7,26.2-5.4,39.2c2,6,4.9,11.7,8.5,17
				c4.2,6.2,8.5,13,15,17.1c16.3,10.2,31.9-1.8,43.9-12.3c4.4-3.9,8.7-7.8,13.2-11.6c1.2-1,2.4-2,3.5-3c2.8-2.4,1.2-1,0.6-0.5
				c2.6-2,5.4-3.9,8.2-5.8c9.5-6.3,19.7-11.6,30-16.3c2.5-1.2,5.1-2.3,7.7-3.4c1.3-0.6,2.6-1.1,3.9-1.7c-2.8,1.2-0.2,0.1,0.4-0.1
				c5.7-2.4,11.4-4.7,17.2-7c11.6-4.7,23.1-9.5,34.4-15c13-6.4,26.4-14.9,27-31.1c0.6-15.4-10.8-26.4-24.2-31.5
				c-5.8-2.2-12.2-2.5-18.4-2.4c-2.9,0.1-5.8,0.2-8.8,0.2c-0.5,0-5.8-0.7-2,0c-1-0.2-5.1-2-1.9-0.3c-0.9-0.5-1.7-1-2.5-1.5
				c3.4,2-0.2-0.2-0.9-0.9c-1.8-1.7-3.5-3.6-5.1-5.4c-4.1-4.5-8.3-8.7-13.5-12.1c-13-8.5-31.2-8.8-42.3,3.1
				c-10.4,11.1-10.3,29.7-1.6,41.8c9.8,13.5,25.2,17.5,41.1,18.8c14,1.1,28,1.6,42,2.5c3,0.2,6,0.4,9.1,0.6c1.6,0.1,3.3,0.3,4.9,0.5
				c-3.2-0.4,0.6,0.2,1.7,0.4c3.2,0.6,6.3,1.5,9.4,2.5c0.8,0.3,2.8,1.5,0.2,0c1.9,1,3.8,2,5.6,3.2c-2.2-8.2-4.3-16.4-6.5-24.6
				c-1.5,3.4-3.2,6.6-5.1,9.8c-1.1,1.8-2.3,3.5-3.5,5.2c-0.1,0.2-1.7,2.3-0.5,0.7c1.3-1.7-1.6,1.9-1.6,1.9
				c-5,5.9-10.5,11.3-16.4,16.3c-3,2.6-6.2,5.2-9.3,7.7c-0.2,0.1-2.3,1.8-0.7,0.6c1.7-1.3-1,0.7-1.4,1c-1.7,1.3-3.5,2.6-5.2,3.9
				c-7,5.2-14.1,10.4-21.3,15.3c-7.5,5.1-15.1,9.9-23.1,14.2c-3.7,2-7.5,3.9-11.3,5.7c-1.1,0.5-2.2,1-3.3,1.5c0.4-0.2,2-0.8,0.1-0.1
				c-2.5,1-5.1,1.9-7.7,2.8c-4,1.3-8.1,2.5-12.2,3.5c-2.1,0.5-4.1,0.9-6.2,1.3c-0.9,0.2-1.8,0.3-2.7,0.5c3-0.5-0.9,0.1-1.5,0.2
				c-4.2,0.4-8.4,0.6-12.6,0.5c-2.1-0.1-4.2-0.2-6.3-0.4c-3.7-0.3-1.4-0.1-0.6,0c-1.5-0.2-3-0.5-4.4-0.8c-4.7-0.9-9.4-2.1-13.9-3.6
				c-2.6-0.8-5.1-1.7-7.7-2.7c-0.8-0.3-1.7-0.6-2.5-1c-0.8-0.3-3.8-1.6-1.6-0.6c-9.5-4.1-18.7-8.8-27.8-13.6
				c-1.4,11-2.9,21.9-4.3,32.9c19.4-4.1,38.9-8.3,58.3-12.4c7.4-1.6,13.6-9.9,13.2-17.4c-0.4-8.3-5.4-14.6-13.2-17.4
				c-1.9-0.7-1.9-0.7,0,0.1c-0.9-0.4-1.9-0.9-2.8-1.4c-1.6-0.8-3-1.9-4.6-2.8c-1-0.7-0.9-0.6,0.5,0.5c-0.8-0.7-1.6-1.3-2.3-2
				c-1.3-1.2-2.5-2.6-3.7-3.9c-0.8-1-0.7-0.8,0.5,0.6c1.2,3,1.1,6.2-0.2,9.6c1-1.2,1.7-3.2,2.6-4.6c0.7-1.1,1.4-2.2,2.1-3.3
				c0.5-0.7,1-1.4,1.5-2.1c-1.5,1.9-1.7,2.1-0.4,0.6c4-4.7,8.2-9,12.8-13c2.3-2,4.7-4,7.2-5.9c-3.5,2.8-0.2,0.2,0.6-0.4
				c1.4-1.1,2.9-2.1,4.3-3.2c21.9-16,45.9-31.1,58.9-55.9c6.3-12.1-1.5-26.8-15.5-27.1c-14.4-0.3-28.9-0.6-43.3-1
				c-7.5-0.2-15.2-0.2-22.3,2.2c-8.2,2.7-14.8,7.7-21.4,13.1c-19.5,16.1-35.2,37.5-45.1,60.7c11.2,3,22.4,6.1,33.5,9.1
				c-1.8,4.9-2.1,6.3-0.9,4.2c0.7-1.1,0.5-0.9-0.5,0.6c0.8-0.7,1.4-1.5,2.2-2.2c2.6-2.5,5.2-4.9,7.8-7.4c4.9-4.7,9.9-9.4,14.8-14.1
				c9.9-9.4,19.7-18.8,29.6-28.2c11.1-10.5,2.8-31.3-12.7-30.7c-12.7,0.5-25.4,1.8-38,3.5c-12.1,1.7-25,3.3-34.3,12.1
				c-8.9,8.5-11.2,20.2-12.7,31.8c-0.1,1.2-0.3,2.4-0.4,3.5c-0.2,2.6,0.9-4.4,0,0c-0.4,2-0.8,4-1.5,6c-0.2,0.7-1.5,2.8-0.3,1
				c1.7-2.5-0.8,1.3-1,1.3c0.5-0.2,2.4-2.4,0.3-0.7c3.3-2.7,0.5-0.6-0.7-0.1c9,5.2,18.1,10.4,27.1,15.5c-0.1-1-0.1-2-0.1-3
				c-0.4,2.4-0.3,2.5,0.1,0.5c1.1-3.9-1.3,2.1,0.4-1.3c1.7-3.2,3.5-6.4,5.1-9.6c5.7-11.5,8.8-25-1.6-35.3c-7.5-7.4-20-9.2-30.1-9.7
				c-9.4-0.5-19.3,1.1-28.1,4.4c-8.5,3.2-14.2,10.3-12.9,19.7c1.1,8.6,8.7,15.9,17.7,15.6c1.1,0,1.8,0.5-0.2-0.2
				c-1.6-0.5-3.2-0.6-4.7-1.7c-1-0.7-1.7-1.5-2.4-2.6c1,1.6,0.6,0.1,0.2,0c-0.1-0.4-0.3-0.7-0.4-1.1c0.1,0.4,0.3,0.8,0.4,1.2
				c0.1,0.4,0.2,0.8,0.3,1.2c-0.1-0.8-0.2-1.6-0.3-2.3c0.1,0,0.1,1.7,0,1.8c-0.4,2.1,1.1-3.1,0-0.5c-3.3,7.7-6.3,17.2-6.4,25.6
				c-0.2,10.6,4,20.5,8.5,29.8c3.7,7.7,7.6,15.3,11.4,23c3.6,7.3,6.8,15.2,11.5,21.8c5.4,7.7,12.3,13.7,20.4,18.6
				c14.3,8.5,30.4,16,46.3,21.1c17.4,5.5,35.3,5.9,53.1,2.3c15.8-3.2,30.7-9.7,45.7-15.5c16.7-6.5,34.1-11.6,49.9-20.1
				c14-7.5,27.1-17.2,39.7-26.9c7.9-6.1,15.5-12.3,21.7-20.1c3.2-4,6.2-8.1,9.2-12.2c0.5-0.7,1-1.3,1.5-2c-1.1,1.5-0.7,0.8,0.2-0.3
				c1.4-1.7,2.8-3.4,4.3-4.9c1.5-1.6,3.1-3,4.8-4.4c-2.4,2,1.4-0.9,2.2-1.5c3.6-2.4,7.2-4.7,10.8-7.2c4.1-2.9,8.1-5.9,11.7-9.5
				c1.3-1.3,2.6-2.6,3.8-3.9c0.2-0.2,0.4-0.4,0.6-0.5c-0.9,1.2-2.2,1.7-3.8,1.7c-5.8,1.5-11.2-0.1-13.7-8.3
				c1.5-5.8,3.1-11.7,4.6-17.5c-11.2,11.6-22.5,23.3-33.7,34.9c-11.1,11.5-23.1,22.5-29.6,37.4c-1.3,3.1-2.6,6.3-4.2,9.2
				c-0.8,1.5-1.7,2.9-2.7,4.3c2.1-2.9-1.3,1.4-1.5,1.6c-2.3,2.5-4.9,4.7-7.5,6.9c-0.2,0.2-4.6,3.6-1.5,1.3c-1.7,1.3-3.5,2.6-5.3,3.8
				c-5.3,3.7-10.8,7.1-16.5,10.2c-2.8,1.5-5.7,3-8.6,4.4c-1.5,0.7-2.9,1.4-4.4,2.1c-1,0.4-2,0.9-2.9,1.3c1.8-0.8,1.8-0.7-0.2,0.1
				c-12.6,5-25.5,9-38.8,11.9c-5.9,1.3-11.8,2.4-17.7,3.3c-1.6,0.2-3.3,0.5-4.9,0.7c4.2-0.6-1.3,0.1-1.7,0.2
				c-3.8,0.4-7.6,0.8-11.5,1.1c-13.8,1.1-27.6,1.5-41.5,1.2c-7.5-0.2-14.9-0.5-22.3-1.3c-0.1,0-6.1-0.7-2.6-0.3
				c-1.8-0.2-3.7-0.6-5.5-0.9c-4.2-0.7-8.3-1.6-12.4-2.7c-3.5-1-7-2.1-10.5-3.3c-1.5-0.5-2.9-1.1-4.4-1.7c3.8,1.5-2.2-1-2.9-1.3
				c-6.6-3.1-13-6.8-19-10.9c-1.3-0.9-2.6-1.8-3.8-2.7c-1.6-1.2-1.7-1.3-0.1,0c-0.8-0.6-1.6-1.3-2.4-2c-2.8-2.3-5.5-4.8-8.1-7.4
				c-2.6-2.6-5.1-5.2-7.5-8c-1-1.2-2-2.4-3-3.6c-1.3-1.6-1.3-1.6-0.1-0.1c-0.6-0.8-1.2-1.7-1.8-2.5c-10.4,6.1-20.7,12.1-31.1,18.2
				c7.8,10.3,16.9,19,28.5,24.9c6.9,3.5,16.2,3.3,21.8-2.8c5.4-5.9,7-14.7,2.8-21.8c-14.3-24.3-31-47.1-49.5-68.4
				c-2.6,10-5.3,20.1-7.9,30.1c-5.4,1.8-11-1.4-13.1-5.9c-0.3-0.6,0-2.5-0.3-0.7c-0.2,1,0,2.2,0,3.3c0.2,6.2,1.3,12.4,4.7,17.7
				c6,9.4,16.1,14.8,27,16.3c11.2,1.5,22.1-0.7,32.6-4.5c8.9-3.2,18-6.7,24.3-14c8.8-10.3,9.5-25.7-0.5-35.6c-7-7-17.4-9.3-27-8.5
				c-1.5,0.1-3.1,0.3-4.6,0.4c-2,0.1-4.7-0.5-1.1,0.3c-1.3-0.3-2.4-1.1,0.8,0.7c-2.9-1.6,0.9-0.8,2.9,3.3c0.3,0.6,0.4,1.6,0.7,2.1
				c0.9,1.7,0-1.8,0-2.7c-0.3-9.4-0.1-18.8,0.7-28.2c0.2-2.8,0.5-5.6,0.8-8.4c0.1-1.2,0.3-2.5,0.4-3.7c0.4-3.4-0.7,4.2,0.3-1.7
				c0.8-5.3,1.7-10.5,2.9-15.7c2.3-10.7,5.3-21.3,8.9-31.7c4.5-13.1-9.6-25.8-22.1-22.1c-10.4,3-19.4,10-24,19.9
				c-4.6,9.8-4.8,21.9-3.4,32.6c-0.1,1.3,0,1.2,0.2-0.4c-0.2,1.1-0.5,2.2-0.8,3.3c-0.3,1.1-0.7,2.1-1.1,3.2c0.8-1.7,0.7-1.6-0.2,0.4
				c-2.4,5-4.9,10-6.9,15.1c-4.6,11.9-4.3,23.6,0.8,35.2c4.9,11,20.7,10.9,28.3,3.6c5.3-5.1,10.6-10.2,16-15.2
				c-9.4-1.2-18.8-2.4-28.3-3.6c0.6,0.7,1.1,1.5,1.6,2.3c0.9,1.8,0.9,1.6-0.1-0.5c0.2,0.7,0.4,1.3,0.6,2c0.3,1.3,0.3,0.9-0.1-1.3
				c0.1,0.9,0.1,1.9,0.1,2.8c-0.2,2.1-0.1,1.9,0.1-0.6c0.6,0.9-2.6,5-0.1,1c-0.4,0.8-0.9,1.6-1.5,2.4c2.1-2.7,1.5-2-1.7,2.1
				c-1.5,2.1-2.4,3.8-3.3,6.5c-2.3,7.5-0.4,15.2,4.8,21c11.8,13.4,31.5,15.5,48.2,16.6c-4.2-10.2-8.5-20.5-12.7-30.7
				c-5.9,7.2-11.9,14.4-17.8,21.6c-3.2,3.9-7.5,7.9-9.9,12.4c-4.4,8-3.6,18,3,24.6c8.1,8.1,21.1,9.5,31.8,6.8
				c9.6-2.5,17.5-8.9,24.7-15.5c13.6-12.6,27.1-25.3,40.7-37.9c13.3-12.4,26.2-25.3,40.2-37c0.9-0.8,1.8-1.5,2.7-2.2
				c2.3-1.9-1.8,1.3,0.6-0.4c1.9-1.4,3.8-2.7,5.8-4c2-1.3,4-2.4,6.1-3.5c1-0.5,2.1-1,3-1.5c2.4-1.3-2.2,0.6,0.4-0.2
				c2.2-0.7,4.3-1.5,6.5-2.1c0.8-0.2,1.7-0.4,2.5-0.6c4.9-1.2-1.8-0.1,1.1-0.3c2.2-0.1,4.5-0.3,6.7-0.2c0.8,0,1.7,0.1,2.5,0.2
				c-3.8-0.3,1.4,0.4,1.8,0.6c8.8,2.2,17.7-2.1,21.2-10.4c3.5-8.4,0.3-17.6-7.4-22.5c-17.9-11.4-40.2-5.4-55.5,7.3
				c-7.2,5.9-12.7,13.5-18.2,20.9c-1,1.3-2,2.7-3,4c-1.2,1.6-1.3,1.8-0.5,0.6c-0.8,1-1.6,2-2.3,2.9c-2.8,3.4-5.6,6.7-8.5,10
				c-5.8,6.5-11.8,12.8-17.9,19.1c-3.3,3.3-6.5,6.7-9.8,10c-1.5,1.5-3.1,3-4.6,4.5c-0.9,0.8-1.8,1.6-2.8,2.4
				c-1.7,1.4-1.9,1.6-0.6,0.5c-6.8,4.9-14.4,8.6-21.7,12.5c-8.4,4.5-16.9,8.9-25.3,13.4c-8.3,4.4-11.6,16.7-6.5,24.6
				C125.9,272.8,136.1,275.5,145,270.8L145,270.8z"/>
		</g>
	</g>
	<g id="XMLID_3_">
		<g id="XMLID_29_">
			<path id="XMLID_33_" class="st2" d="M48.6,190.4c14.6-9.9-11.4,3.2-13.1-0.6c0.4,0.8,6.6,5,4.9,3.9c2.5,1.6,5.5,3.1,8.5,3.7
				c7.1,1.5,14.8,0.5,21.1-3.2c10.1-5.8,15.7-17,18.1-28c1.1-5.3,1.7-10.7,2.2-16c0.2-2,0.4-4.1,0.6-6.1c0.4-3.7,0.2-1.2,0.1-0.4
				c0.3-1.4,0.5-2.9,0.8-4.3c0.5-2,1.2-3.9,1.8-5.9c0.7-2.5-1.4,2.6-0.2,0.4c0.3-0.6,0.6-1.3,0.9-1.9c0.9-1.7,1.9-3.2,2.9-4.8
				c1.7-2.7,0.1-0.3-0.3,0.2c0.7-0.9,1.5-1.8,2.3-2.7c2.4-2.7,5-5.1,7.8-7.3c-3.3,2.6,1.5-0.9,2.3-1.4c1.8-1.2,3.7-2.3,5.7-3.3
				c1.5-0.8,3.1-1.5,4.6-2.3c3-1.4,0.3-0.1-0.3,0.1c0.9-0.3,1.8-0.7,2.7-1c1.8-0.7,3.7-1.3,5.5-1.8c0.7-0.2,1.5-0.3,2.1-0.6
				c1.5-0.6-1.8-0.2-2.9-0.4c1.2,0.3-7-3.6-7-6.5c0,0.9,0.8,2.5,1,3.5c0.3,1.2,0.5,2.3,0.7,3.5c-0.1-0.9-0.2-3.1,0,0.5
				c0.1,2.1,0.1,4.2,0.1,6.3c0,1.2-0.1,2.4-0.2,3.6c-0.1,1-0.5,4.1-0.1,1.6c-0.7,4.6-1.7,9.1-2.7,13.6c-1.5,6.6-3.8,13.4-2.2,20.1
				c3,12.9,16.1,18.5,28.3,17.5c11.2-0.9,21.7-5.4,29.9-13.2c3.5-3.4,6.3-7.6,8.8-11.8c0.6-0.9,1.1-1.9,1.7-2.9
				c1.3-2.4,0.4-0.2,0.1-0.3c-0.5-0.3,3.8-2.3-0.1-0.1c0.4-0.2,4.1-2,2-1.2c-2,0.7,0.5-0.1,0.8-0.1c1-0.2,2.1-0.4,3.1-0.7
				c-3.1,0.8-1.1,0.1-0.1,0.1c1,0,2.1-0.1,3.1-0.1c1,0,2.1,0.1,3.1,0.2c0.9,0.1,3.2,0.7-0.1,0c2.1,0.5,4.2,0.8,6.2,1.4
				c18.1,4.7,35.1,13.1,54.3,11.2c10.3-1,20-3.7,29.7-7.3c8.3-3,16.9-5.5,25.2-8.5c2.5-0.9-2.7-0.1-0.1,0c0.3,0,3.8,0.2,3.9,0
				c-0.4,0.6-3.3-0.8-3.3-0.8c2.5,0.9,0.5-0.1-0.8-1.1c-1.4-1-0.3-0.5,0.2,0.3c0.4,0.6,2.3,4.8,0.6,0.7c0.7,1.8,1.3,3.6,2,5.3
				c4.5,11.8,11,20.3,21.1,27.9c3.6,2.7,7.4,5.1,11.3,7.4c1.9,1.2,3.9,2.3,5.8,3.5c0.1,0.1,1.7,1.1,1.7,1.1c-2-1-3-2.7-3.2-5.1
				c-1.3-4.5-1.8-5.3-1.6-2.5c-0.9,5.3-0.3,11.2-0.8,16.6c-0.1,1.3-0.2,2.6-0.4,3.9c-0.1,0.8-0.6,4.4-0.2,2
				c-0.5,3.2-1.1,6.4-1.7,9.6c-1.8,9.2,2.6,19.9,12.6,22.1c8.9,2,20.2-2.7,22.1-12.6c2.3-11.8,3.9-23.8,4.3-35.8
				c0.2-6.5,0.3-13.2-2.9-19.2c-2.9-5.4-7.8-8.9-12.9-12c-3.4-2.1-6.9-4.1-10.3-6.3c-0.8-0.5-1.7-1.1-2.5-1.7
				c-0.4-0.3-3-2.2-1.2-0.8c1.8,1.4-0.6-0.6-1-0.9c-0.9-0.8-1.7-1.7-2.6-2.5c-2.3-2.1-0.4-0.4,0,0.3c-0.6-0.8-1.1-1.6-1.6-2.4
				c-0.5-0.8-0.9-1.7-1.3-2.6c1.8,3.5,0.3,0.7-0.1-0.3c-1.8-4.7-3.3-9.7-6-14c-6.9-11-18.8-17.2-31.8-16.2
				c-10.4,0.9-20.1,4.6-29.8,8.2c-4.4,1.6-8.7,3.2-13.2,4.6c-2.2,0.7-4.4,1.3-6.6,1.9c-1.1,0.3-2.2,0.5-3.3,0.7
				c-1.3,0.3-3.8,0.6-1.1,0.3c-2.3,0.2-4.6,0.4-6.8,0.3c-1,0-7.1-0.8-3.4-0.1c-4.8-0.9-9.6-2.2-14.3-3.6
				c-18.6-5.9-38.3-13.5-57.8-6.2c-6.1,2.3-11.7,5.5-16.1,10.3c-3.9,4.3-6.3,9.3-9.5,14.1c2-3-1.2,0.9-2.2,1.8
				c2.9-2.4-1.5,0.6-2.6,1.1c3.4-1.7-1.5,0.1-2.7,0.4c3.4-0.9,1.5-0.1,0.4-0.2c-1.9-0.1-4.8-1.1-0.5,0.1c1.6,2.6,3.1,5.2,4.7,7.9
				c2.7,8.7,4.5,10.8,5.1,6.1c0.4-1,0.6-2.6,0.8-3.6c0.6-2.4,1.1-4.8,1.6-7.2c1.3-6.1,2.3-12.2,2.9-18.4c1.2-11.5,0.1-23.9-5-34.4
				c-11.7-24.2-43.7-11-60.5-0.5c-18.5,11.6-32.5,29.4-35.8,51.4c-0.6,3.9-1,7.8-1.5,11.7c-0.1,1.2-0.2,2.3-0.4,3.5
				c0,0.4-0.7,4.9-0.3,2.8c0.3-2.1-0.3,1.4-0.4,1.9c-0.3,1.4-0.6,2.8-1,4.2c-0.3,1.1-0.7,2.2-1.1,3.3c1.2-3.6-0.4,0.3-0.8,1.1
				c0.6-1,2.2-1.8-0.1-0.2c1.3-0.9,2-1.6,3.6-1.9c1.7-0.3,6.5,0.8,6.2,1.6c0.9,0.7,0.7,0.5-0.8-0.7c-1.2-0.9-2.4-1.9-3.6-2.8
				c-7.3-5.3-18-6.3-25.7-1.1c-7.8,5.3-12,16.1-6.5,24.6C29,191.6,40.3,196,48.6,190.4L48.6,190.4z"/>
		</g>
	</g>
	<g id="XMLID_4_">
		<g id="XMLID_36_">
			<path id="XMLID_40_" class="st2" d="M231.7,153.5c-5.4-2.5-10.9-3.8-16.8-2.2c-5.5,1.5-10.4,5.4-13.4,10.2
				c-3.9,6.2-5.5,14.9-4.9,22.1c0.4,5.9,1.6,11.3,5.8,15.8c4.2,4.5,9.9,5.4,15.6,6.1c7.6,1,14.7,0.3,22.3-0.8
				c9.3-1.5,15.3-13.6,12.6-22.1c-3.3-10.1-12.1-14.1-22.1-12.6c4.1-0.6-1,0-1.6,0.1c-1.3,0.1-2.7,0.1-4,0.1c-1.3,0-2.7-0.1-4-0.2
				c-0.5-0.1-1.1-0.1-1.6-0.2c1.6,0,3.2,0.5,4.6,1.4c2.8,3.6,5.5,7.2,8.3,10.8c0.7,2.1,0.1,3.2,0,0.2c0-0.5,0-1,0-1.5
				c0.1-1.4,0-1-0.3,1.1c-0.1-0.9,0.5-2,0.6-2.9c1.2-3-0.2-2.1-4,2.9c-1.6,3-4,4.6-7.2,4.8c-3-0.8-6.1-1.6-9.1-2.5
				c0.3,0.1,0.6,0.3,0.9,0.4c8.5,3.9,19.8,2.7,24.6-6.5C242.4,170.2,240.9,157.6,231.7,153.5L231.7,153.5z"/>
		</g>
	</g>
	<g id="XMLID_5_">
		<g id="XMLID_43_">
			<path id="XMLID_47_" class="st2" d="M235.6,160.3c-3.6,0.3-7.3-0.2-10.9,0c-5.7,0.4-11,1.6-15.9,4.6c-11.3,6.9-16,22.7-8.6,34.1
				c5.1,7.9,16.2,11.9,24.6,6.5c7.9-5.1,11.9-16.2,6.5-24.6c2.5,3.9,1.5,9.8-1.6,13.1c-1,1.1-2.3,1.9-3.8,2.4c2-0.4,1.6-0.4-1.2,0
				c0.5-0.9,9.6,0,10.9,0c9.4-0.7,18.5-7.8,18-18C253.1,169.1,245.6,159.6,235.6,160.3L235.6,160.3z"/>
		</g>
	</g>
	<g id="XMLID_6_">
		<g id="XMLID_50_">
			<path id="XMLID_54_" class="st2" d="M194.4,251.7c9.4,0,18.4-8.3,18-18c-0.4-9.8-7.9-18-18-18c-9.4,0-18.4,8.3-18,18
				C176.8,243.5,184.3,251.7,194.4,251.7L194.4,251.7z"/>
		</g>
	</g>
	<g id="XMLID_7_">
		<g id="XMLID_57_">
			<path id="XMLID_61_" class="st3" d="M161.1,130.1c-6.9-1.2-13-0.8-19.4,2.5c-4.7,2.4-8.8,6.6-11.4,11.2
				c-6.1,10.8-7.2,29.4,5.2,36.3c4.6,2.6,10.1,3.3,15.3,3.7c5.4,0.5,11.2-0.8,15.8-3.6c5.5-3.4,9.6-9.2,11-15.5
				c1-4.8,0.4-9.3,0.7-14.1c0.5-9.4-8.7-18.4-18-18c-10.2,0.5-17.4,7.9-18,18c-0.1,1.8,0,3.6,0.1,5.4c0,0.8-0.3,3.3,0.3,0.4
				c0.3-1.5,0.3-1.8,0.1-0.8c-0.3,1.4,0,0.7,0.9-1.9c1.4-2.1,4.1-4.6,6.7-5.4c0.6-0.2,4.1-0.9,1.6-0.4c-0.4,0-0.7-0.1-1.1-0.1
				c2.8,0.4,3.5,0.5,1.9,0.2c-2.2-0.4-3.6-1.5,1,1c2.2,2.2,4.3,4.3,6.5,6.5c-0.1-0.3-0.3-0.5-0.4-0.8c0.8,3,1.6,6.1,2.5,9.1
				c-0.1-0.6,0.2-4.1-0.1-4.4c-0.5,2.9-0.5,3.3-0.1,1.4c0.5-1.5,0.4-1.5-0.1,0c-0.7,1.4-0.6,1.5,0.1,0.1c-0.8,1.5-2,2.7-3.5,3.5
				c1.7-0.9,1.2-0.8-1.5,0.5c-1.9,0.5-3.7,0.4-5.5-0.1c4.9,0.9,9.5,0.8,13.9-1.8c3.7-2.2,7.3-6.5,8.3-10.8
				C175.7,143.5,171,131.9,161.1,130.1L161.1,130.1z"/>
		</g>
	</g>
	<g id="XMLID_10_">
		<g id="XMLID_64_">
			<path id="XMLID_68_" class="st3" d="M340.6,210.7c-3.9,15.7,8,26.8,22,31c12.1,3.6,23.9-0.6,32.6-9.5
				c12.1-12.4,4.2-29.7-8.7-37.3c-12.6-7.5-25.9-2.8-35.6,6.8c-6.7,6.6-7.1,18.9,0,25.5c7.2,6.6,18.3,7.1,25.5,0
				c0.4-0.4,2.1-1.5,2.2-2.1c-0.4,1.8-4.9,1.6-5.7,1.5c-2.9-0.1-2.9-0.5-5.1-1.2c-0.8-0.7-0.9-0.7-0.1-0.1c2.4,2.3,1.6,0-2.4-6.9
				c0.8-3,1.6-6.1,2.5-9.1c1.5-1.9,1.7-2.3,0.6-1.3c-1,0.8-0.8,0.7,0.6-0.5c-4.3,1.4,3.9,0.1,4.1-0.3c1.1,0.2,1.1,0.2,0-0.1
				c-1.2-0.4-1.1-0.3,0.5,0.3c-8.5-3.3,5.8-3,1.9,12.7c2.2-9.1-2.9-19.9-12.6-22.1C353.5,196,343,200.9,340.6,210.7L340.6,210.7z"/>
		</g>
	</g>
	<g id="XMLID_12_">
		<g id="XMLID_71_">
			<path id="XMLID_75_" class="st3" d="M196.8,255.5c0.6,2,0.6,1.7,0.3-0.7c0,2.1,0.1,1.8,0.3-0.6c-0.6,1.9-0.5,1.8,0.3-0.4
				c1.6-1.7,1.6-1.9,0.1-0.3c1.7-1.3,1.6-1.3-0.1-0.2c-1.8,0.9-1.8,0.9,0.1,0c-2.1,0.5-2,0.6,0.2,0.4c-1.8,0-2.1,0-0.7,0.1
				c2,0.1,3.8,0.9,5.3,2.6c3.3,3.9,3.8,8.3,1.4,13.3c1.1-1.6,0.9-1.5-0.5,0.4c1.2-1.6,2.4-3.1,3.6-4.7c1.1-1.5,2.2-3.2,2.8-4.9
				c1.6-2.6,0.6-1.9-2.9,2.1c-5.3,2.6-10,2.1-14.2-1.4c6.7,6.6,18.8,7.2,25.5,0c6.6-7.1,7.2-18.4,0-25.5
				c-12.6-12.4-31.9-7.9-39.8,7.2c-0.6,1.1-1.2,2.1-1.7,3.2c0.4-0.5,0.8-1,1.2-1.5c-0.8,0.9-1.5,1.9-2.2,2.9c-2.3,3-4,5.8-5.3,9.4
				c-2.8,8.2,0.1,18.2,6.1,24.3c10.9,11,28,10.1,40.5,2.3c12.5-7.8,19.1-23.3,14.2-37.5c-3-8.9-12.5-15.7-22.1-12.6
				C200.6,236.2,193.6,245.9,196.8,255.5L196.8,255.5z"/>
		</g>
	</g>
	<g id="XMLID_20_">
		<g id="XMLID_78_">
			<path id="XMLID_82_" class="st3" d="M269.4,165.2c-0.6,9.3,1.3,18.6,7.6,25.6c8.6,9.6,26.2,13,35.7,2.9c8.5-8.9,9.5-22.7,4-33.5
				c-5.6-10.9-18.4-16-30-13.1c-9.1,2.3-15.5,13-12.6,22.1c3.1,9.5,12.4,15,22.1,12.6c-2,0.5-4,0.4-6-0.2c1.8,0.5,1.2,0.3-1.7-0.8
				c-2.3-2-2.8-2.3-1.5-1c-1.3-1.1-2.2-2.5-2.6-4.2c-0.2-2.9-0.3-3.4-0.2-1.4c-0.1,2,0,1.5,0.2-1.4c-0.5,1.8-0.3,1.1,0.8-1.9
				c15.7-2.9,20.7-5.2,14.8-6.9c-1.3-0.4-0.7-0.1,1.8,0.9c-1.7-1-1.3-0.6,1.2,1.1c1.8,2.5,2.2,3,1.2,1.4c1.1,2.9,1.4,3.5,0.9,1.7
				c-0.4-1.9-0.3-1.2,0.2,1.9c-0.1-0.7-0.1-1.3-0.1-2c0-1.3,0-2.6,0.1-3.9c0.6-9.4-8.7-18.4-18-18
				C277.2,147.7,270,155.2,269.4,165.2L269.4,165.2z"/>
		</g>
	</g>
	<g id="XMLID_27_">
		<g id="XMLID_85_">
			<path id="XMLID_89_" class="st3" d="M91.3,233.7c2,0,1.6-0.1-1.2-0.4c0.8,0.2,1.6,0.4,2.3,0.6C90.1,232.8,89.7,232.8,91.3,233.7
				c-1.9-1.6-2.2-1.8-0.8-0.4c-1.5-2.1-1.8-2.3-0.7-0.7c-0.9-2.5-1.1-2.8-0.5-0.9c0.4,2,0.4,1.6-0.2-1.2c-0.2,3.5,0.4,1.7,1.8-5.4
				c2.2-2.2,4.3-4.3,6.5-6.5c6.5-1.4,8.4-1.9,5.7-1.7c-0.6,0-1.2,0.1-1.8,0.1c-3.3,0.2,2.6,0.7,0.6,0.1c-1-0.3-0.8-0.2,0.5,0.3
				c1.2,0.3,2.2,1,3,1.9c1.7,1.7,2.9,4.5,2.9,7c0.1-9.4-8.3-18.4-18-18c-9.8,0.4-17.9,7.9-18,18c-0.1,11.8,8.1,22.1,19.4,25.4
				c11.6,3.4,26.4,1.1,31.6-11.1c4.1-9.8,1.2-21.7-5.1-29.9c-6.4-8.3-16.3-13-26.8-12.9c-9.4,0.2-18.4,8.2-18,18
				C73.8,225.3,81.3,233.9,91.3,233.7L91.3,233.7z"/>
		</g>
	</g>
	<g id="XMLID_34_">
		<g id="XMLID_92_">
			<path id="XMLID_96_" class="st3" d="M298.7,249.8c-3.5,3.7-6.5,7.8-7.9,12.8c-2,7.1-0.1,15.7,5.1,21c4.6,4.6,10.3,6.7,16.8,6.8
				c3.8,0.1,7.6-0.1,11.3-0.1c6-0.1,12.8-3.3,15.5-8.9c3.8-7.7,4.1-15.4,0.3-23.2c-3-6.1-8.5-10.2-14.9-12.2
				c-9-2.8-20,3.3-22.1,12.6c-2.2,9.8,3,19.1,12.6,22.1c-3.1-1-5.5-2.9-7.3-5.7c1.5,2.4-1.4-4.4-0.8-1.5c-0.2-1.6-0.4-3.2-0.6-4.8
				c0.1,0.5,0.1,1,0,1.5c0.2-1.6,0.4-3.2,0.6-4.8c-0.4,1.8,0,1,1.1-2.2c5.2-3,10.4-5.9,15.5-8.9c-4.4,0-9,0.5-13.4,0
				c1.6,0.2,3.2,0.4,4.8,0.6c3.3,3.2,6.6,6.5,9.9,9.7c0.2,1.6,0.4,3.2,0.6,4.8c-0.1-0.5-0.1-1.1,0-1.6c-0.2,1.6-0.4,3.2-0.6,4.8
				c0.6-2.5-1.1,2.2-1.7,2.9c-2,2.5,0,0.1,0.4-0.3c6.5-6.8,7.3-18.8,0-25.5C317.1,243.3,305.6,242.5,298.7,249.8L298.7,249.8z"/>
		</g>
	</g>
</g>
</svg>
