<?xml version="1.0" encoding="utf-8"?>
<!-- Generator: Adobe Illustrator 19.0.0, SVG Export Plug-In . SVG Version: 6.00 Build 0)  -->
<svg version="1.1" id="Layer_1" xmlns="http://www.w3.org/2000/svg" xmlns:xlink="http://www.w3.org/1999/xlink" x="0px" y="0px"
	 viewBox="0 0 512 512" style="enable-background:new 0 0 512 512;" xml:space="preserve">
<style type="text/css">
	.st0{fill:#97CFF2;}
	.st1{fill:#E9E9E9;}
	.st2{fill:#F195F4;}
	.st3{fill:#C0DADD;}
</style>
<ellipse id="XMLID_5_" class="st0" cx="268.6" cy="123" rx="102.5" ry="30.4"/>
<path id="XMLID_11_" class="st1" d="M189.9,128.4c0.3,0.6,0.4,1.3,0.4,1.9c0.1,2.7-2.4,5-5,5h-3.2c-2.8,0-4.9-2.3-5-5
	c0-0.8,0.1-1.5,0.5-2.1l-34.3-0.5l-1.1-8.4l39.2,304.6L181,424h148l61.6-292.6L189.9,128.4z"/>
<path id="XMLID_10_" class="st2" d="M270.6,114c-50.6,0-91.7,10.4-91.7,23.3c0,6.6,10.9,12.6,28.3,16.8c0.7-1.4,2.1-2.3,4.2-2.2
	c9.1,0.6,17.9,3,27.1,3.2c10,0.3,19.9,1.4,29.9,2.1c17.7,1.2,34.7-3.3,52.2-4.5c0.6-0.7,1.3-1.2,2.4-1.5c7.1-2.2,14-3.8,21.5-3.8
	c2,0,3.3,0.9,4.1,2.2c8.7-3.6,13.7-7.8,13.7-12.3C362.3,124.4,321.2,114,270.6,114z"/>
<path id="XMLID_4_" class="st3" d="M268.2,87.1c-69.6,0-125.9,16.1-125.9,35.9s56.4,35.9,125.9,35.9c69.6,0,125.9-16.1,125.9-35.9
	S337.7,87.1,268.2,87.1z M273,150.2c-50.5,0-91.5-12.1-91.5-27.1c0-15,41-27.1,91.5-27.1s91.5,12.1,91.5,27.1
	C364.5,138.1,323.5,150.2,273,150.2z"/>
</svg>
